<?xml version="1.0" encoding="utf-8"?><svg xmlns="http://www.w3.org/2000/svg" xmlns:xlink="http://www.w3.org/1999/xlink" width="3000" height="974" preserveAspectRatio="xMidYMid" viewBox="0 0 3000 974" style="z-index:1;margin-right:-2px;display:block;background-repeat-y:initial;background-repeat-x:initial;background-color:rgb(241, 242, 243);animation-play-state:paused" ><g transform="translate(1500,487) scale(1,1) translate(-1500,-487)" style="transform:matrix(1, 0, 0, 1, 0, 0);animation-play-state:paused" ><linearGradient id="lg-0.2766655233857731" x1="0" x2="1" y1="0" y2="0" style="animation-play-state:paused" ><stop stop-color="#93dbe9" offset="0" style="animation-play-state:paused" ></stop>

  
<stop stop-color="#689cc5" offset="1" style="animation-play-state:paused" ></stop></linearGradient>
<path d="M 0 0 L 0 891.132 Q 300 896.456 600 861.663 T 1200 672.02 T 1800 591.305 T 2400 426.958 T 3000 460.441 L 3000 0 Z" fill="url(#lg-0.2766655233857731)" opacity="0.4" style="opacity:0.4;animation-play-state:paused" ></path>
<path d="M 0 0 L 0 863.991 Q 300 817.004 600 785.027 T 1200 694.391 T 1800 591.578 T 2400 472.969 T 3000 467.004 L 3000 0 Z" fill="url(#lg-0.2766655233857731)" opacity="0.4" style="opacity:0.4;animation-play-state:paused" ></path>
<path d="M 0 0 L 0 911.853 Q 300 920.638 600 874.506 T 1200 620.853 T 1800 604.161 T 2400 451.855 T 3000 368.308 L 3000 0 Z" fill="url(#lg-0.2766655233857731)" opacity="0.4" style="opacity:0.4;animation-play-state:paused" ></path>
<path d="M 0 0 L 0 850.604 Q 300 790.985 600 772.023 T 1200 712.699 T 1800 635.589 T 2400 569.92 T 3000 458.719 L 3000 0 Z" fill="url(#lg-0.2766655233857731)" opacity="0.4" style="opacity:0.4;animation-play-state:paused" ></path>
<path d="M 0 0 L 0 912.219 Q 300 862.087 600 827.415 T 1200 683.877 T 1800 577.536 T 2400 546.454 T 3000 458.713 L 3000 0 Z" fill="url(#lg-0.2766655233857731)" opacity="0.4" style="opacity:0.4;animation-play-state:paused" ></path></g></svg>