<?xml version="1.0" encoding="utf-8"?><svg xmlns="http://www.w3.org/2000/svg" xmlns:xlink="http://www.w3.org/1999/xlink" width="1314" height="679" preserveAspectRatio="xMidYMid" viewBox="0 0 1314 679" style="z-index:1;margin-right:-2px;display:block;background-repeat-y:initial;background-repeat-x:initial;background-color:rgb(241, 242, 243);animation-play-state:paused" ><g transform="translate(657,339.5) scale(1,1) translate(-657,-339.5)" style="transform:matrix(1, 0, 0, 1, 0, 0);animation-play-state:paused" ><linearGradient id="lg-0.21067113350767475" x1="0" x2="1" y1="0" y2="0" style="animation-play-state:paused" ><stop stop-color="#93dbe9" offset="0" style="animation-play-state:paused" ></stop>

  
<stop stop-color="#689cc5" offset="1" style="animation-play-state:paused" ></stop></linearGradient>
<path d="M 0 0 L 0 586.964 Q 131.4 582.286 262.8 540.47 T 525.6 486.344 T 788.4 375.72 T 1051.2 356.201 T 1314 233.682 L 1314 0 Z" fill="url(#lg-0.21067113350767475)" opacity="0.4" style="opacity:0.4;animation-play-state:paused" ></path>
<path d="M 0 0 L 0 595.955 Q 131.4 559.702 262.8 534.945 T 525.6 450.732 T 788.4 439.584 T 1051.2 358.938 T 1314 260.924 L 1314 0 Z" fill="url(#lg-0.21067113350767475)" opacity="0.4" style="opacity:0.4;animation-play-state:paused" ></path>
<path d="M 0 0 L 0 633.326 Q 131.4 591.441 262.8 566.648 T 525.6 470.469 T 788.4 400.651 T 1051.2 408.941 T 1314 264.307 L 1314 0 Z" fill="url(#lg-0.21067113350767475)" opacity="0.4" style="opacity:0.4;animation-play-state:paused" ></path>
<path d="M 0 0 L 0 665.054 Q 131.4 556.589 262.8 536.249 T 525.6 549.429 T 788.4 381.769 T 1051.2 380.816 T 1314 343.784 L 1314 0 Z" fill="url(#lg-0.21067113350767475)" opacity="0.4" style="opacity:0.4;animation-play-state:paused" ></path>
<path d="M 0 0 L 0 631.937 Q 131.4 624.505 262.8 584.844 T 525.6 451.656 T 788.4 454.05 T 1051.2 367.83 T 1314 331.062 L 1314 0 Z" fill="url(#lg-0.21067113350767475)" opacity="0.4" style="opacity:0.4;animation-play-state:paused" ></path></g></svg>